:SAMPLES-PER-SECOND 30
:FULLY-SPECIFIED
:DEGREES
300
root  -7.62746 38.4206 6.18358 -9.20717 -72.5553 8.50632
RightUpLeg  8.09637 -14.6773 -25.4648
RightLeg  6.35184 -8.10908 -3.11275
RightFoot  3.60887 -3.41275 25.7924
RightToes  5.82063e-011 0 -3.6325e-017
Spine  7.75987 0.134123 2.46854
Spine1  -0.66252 1.07958 -4.73125
HEad  2.56105 -12.9237 1.13588
LeftShoulder1  2.28401 -5.13322 -19.9951
LeftArm  18.0405 24.0308 -43.2214
LeftForeArm  52.0507 -59.1853 -14.0726
LeftHand  -1.14275 1.37734 32.5414
RightShoulder  1.60987 2.67463 19.6791
RightArm  15.0852 -23.5635 51.2683
RightForeArm  26.4458 33.61 5.93851
RightHand  -2.23602 0.759232 -40.7609
LeftUpLeg  -2.73559 12.3349 16.6542
LeftLeg  2.29096 -16.3422 1.91343
LeftFoot  -0.0898878 2.67179 -26.6741
LeftToes  3.99265e-010 -1.33173e-010 6.75004e-011
301
root  -7.56358 38.4333 6.07091 -7.87843 -73.143 7.34227
RightUpLeg  7.91307 -14.7178 -24.7874
RightLeg  5.59801 -8.41325 -2.77709
RightFoot  3.42409 -3.27462 25.0818
RightToes  5.82063e-011 0 -3.6325e-017
Spine  7.53212 -0.301444 2.39915
Spine1  -0.853513 0.452531 -3.70243
HEad  1.94019 -11 1.43633
LeftShoulder1  2.28073 -5.27742 -19.4889
LeftArm  16.3331 25.2597 -44.4291
LeftForeArm  47.3021 -54.7668 -11.9457
LeftHand  -1.26729 0.9714 32.7429
RightShoulder  1.60966 2.69402 19.5871
RightArm  18.9724 -22.1911 51.1943
RightForeArm  23.1006 29.1478 5.04564
RightHand  -2.12765 0.565114 -40.1055
LeftUpLeg  -2.41419 12.854 17.3825
LeftLeg  1.24486 -16.3027 1.99584
LeftFoot  0.447497 2.87184 -27.3662
LeftToes  3.99265e-010 -1.33173e-010 6.75004e-011
302
root  -7.46449 38.4366 5.98213 -6.6768 -73.701 6.26284
RightUpLeg  7.5784 -14.5687 -24.1086
RightLeg  5.09852 -8.65002 -2.60286
RightFoot  3.30481 -3.17666 24.5458
RightToes  5.82063e-011 0 -3.6325e-017
Spine  7.65789 -0.649746 2.11428
Spine1  -1.40559 -0.142035 -2.43945
HEad  1.61495 -9.25461 1.56159
LeftShoulder1  2.28448 -5.41919 -19.0903
LeftArm  15.0439 26.0233 -45.8322
LeftForeArm  41.0928 -50.0961 -10.2649
LeftHand  -1.29491 1.0041 33.6752
RightShoulder  1.6109 2.69477 19.6054
RightArm  22.3039 -21.2572 50.7905
RightForeArm  19.1328 25.3682 4.40882
RightHand  -1.98938 0.312319 -39.2397
LeftUpLeg  -2.41917 13.1626 17.8977
LeftLeg  0.843338 -16.0702 2.09027
LeftFoot  0.828392 2.99175 -27.6205
LeftToes  3.99265e-010 -1.33173e-010 6.75004e-011
303
root  -7.34983 38.4327 5.90868 -6.19014 -74.4024 5.80017
RightUpLeg  7.11653 -14.2576 -23.5448
RightLeg  4.85043 -8.35663 -2.70255
RightFoot  3.03125 -3.08172 24.2684
RightToes  5.82063e-011 0 -3.6325e-017
Spine  7.97753 -0.797791 1.45638
Spine1  -1.93513 -0.576752 -0.88358
HEad  1.24845 -7.76154 1.58362
LeftShoulder1  2.31686 -5.58656 -18.9668
LeftArm  14.149 26.3161 -47.1127
LeftForeArm  35.9271 -45.6073 -8.90364
LeftHand  -1.20611 1.39748 34.419
RightShoulder  1.59998 2.66287 19.5596
RightArm  23.179 -20.7273 50.2557
RightForeArm  16.3594 22.3187 4.53413
RightHand  -1.90814 0.216308 -38.3542
LeftUpLeg  -2.32444 13.4297 18.2714
LeftLeg  0.697365 -15.4833 2.0824
LeftFoot  1.08579 3.06323 -27.6986
LeftToes  3.99265e-010 -1.33173e-010 6.75004e-011
304
root  -7.24934 38.4242 5.86038 -6.30894 -75.1962 5.80986
RightUpLeg  6.86161 -14.0514 -23.2852
RightLeg  4.52397 -7.82486 -2.7566
RightFoot  2.72803 -2.98849 24.0414
RightToes  5.82063e-011 0 -3.6325e-017
Spine  8.22466 -0.855714 0.721996
Spine1  -2.09744 -0.891415 0.627175
HEad  0.639935 -6.52956 1.82894
LeftShoulder1  2.35226 -5.74139 -18.9202
LeftArm  13.7121 26.2805 -48.1887
LeftForeArm  32.1587 -41.6439 -7.83795
LeftHand  -1.1402 1.65475 34.7697
RightShoulder  1.59642 2.65831 19.5179
RightArm  18.8407 -20.516 49.5203
RightForeArm  18.0077 19.7713 6.2753
RightHand  -1.83874 0.13585 -37.5529
LeftUpLeg  -1.91212 13.7228 18.6216
LeftLeg  0.465293 -15.0014 1.99921
LeftFoot  1.17026 3.14246 -28.2056
LeftToes  3.99265e-010 -1.33173e-010 6.75004e-011
305
root  -7.16861 38.4174 5.83134 -6.70256 -75.9948 5.99861
RightUpLeg  6.96578 -14.1362 -23.3881
RightLeg  3.85542 -7.05752 -2.45856
RightFoot  2.65163 -2.94919 23.859
RightToes  5.82063e-011 0 -3.6325e-017
Spine  8.39047 -0.928128 0.204176
Spine1  -2.01851 -1.13996 1.71984
HEad  -0.115093 -5.5736 2.35755
LeftShoulder1  2.35153 -5.78213 -18.7913
LeftArm  13.8196 25.9331 -49.1052
LeftForeArm  28.6521 -37.9959 -6.97835
LeftHand  -1.18313 1.56987 35.2436
RightShoulder  1.61724 2.72327 19.5864
RightArm  13.3253 -20.7044 48.7479
RightForeArm  20.0318 17.8803 7.73693
RightHand  -1.70133 -0.153194 -36.7234
LeftUpLeg  -1.32187 13.9764 18.9431
LeftLeg  0.175738 -14.6756 1.93322
LeftFoot  1.20072 3.21599 -28.7719
LeftToes  3.99265e-010 -1.33173e-010 6.75004e-011
306
root  -7.09298 38.4199 5.80002 -6.54631 -76.8143 5.72113
RightUpLeg  7.13509 -14.2486 -23.4148
RightLeg  2.87326 -6.1336 -2.00197
RightFoot  2.84291 -2.99816 23.9301
RightToes  5.82063e-011 0 -3.6325e-017
Spine  8.52829 -1.00581 0.0544711
Spine1  -2.07034 -1.31199 2.34924
HEad  -0.749252 -4.87382 2.86856
LeftShoulder1  2.33451 -5.74123 -18.7137
LeftArm  14.1574 25.3655 -49.8696
LeftForeArm  25.2536 -34.257 -6.17486
LeftHand  -1.24831 1.44215 35.9419
RightShoulder  1.64124 2.79762 19.6693
RightArm  8.57864 -21.1589 48.1333
RightForeArm  21.16 16.4985 8.65565
RightHand  -1.55708 -0.478678 -35.8998
LeftUpLeg  -0.866436 14.2336 19.3153
LeftLeg  -0.0505688 -14.2235 1.90451
LeftFoot  1.32133 3.25642 -28.8565
LeftToes  3.99265e-010 -1.33173e-010 6.75004e-011
307
root  -7.01308 38.4333 5.75794 -4.91346 -77.7023 4.22878
RightUpLeg  6.98728 -14.0457 -22.8809
RightLeg  1.79535 -5.57816 -1.73445
RightFoot  3.17467 -3.10386 24.2071
RightToes  5.82063e-011 0 -3.6325e-017
Spine  8.56467 -1.05619 0.323208
Spine1  -2.41253 -1.39864 2.71993
HEad  -1.05835 -4.3279 3.15238
LeftShoulder1  2.35205 -5.79095 -18.7715
LeftArm  14.1278 24.9043 -50.561
LeftForeArm  22.3936 -30.3936 -5.38234
LeftHand  -1.23121 1.56231 36.5343
RightShoulder  1.64569 2.80922 19.6571
RightArm  4.89296 -21.622 47.7333
RightForeArm  21.9793 15.3066 9.36487
RightHand  -1.48871 -0.593264 -35.1884
LeftUpLeg  -0.725057 14.582 19.8751
LeftLeg  -0.251308 -13.6476 1.91059
LeftFoot  1.50101 3.2944 -28.792
LeftToes  3.99265e-010 -1.33173e-010 6.75004e-011
308
root  -6.92784 38.4496 5.71101 -2.32767 -78.6861 1.99068
RightUpLeg  6.44135 -13.6947 -22.0547
RightLeg  0.930587 -5.36244 -1.61138
RightFoot  3.49184 -3.20241 24.4412
RightToes  5.82063e-011 0 -3.6325e-017
Spine  8.50072 -1.06641 0.778568
Spine1  -2.87305 -1.41625 2.99909
HEad  -1.08388 -3.83118 3.35133
LeftShoulder1  2.39478 -5.96138 -18.7679
LeftArm  13.593 24.7757 -51.3214
LeftForeArm  19.5407 -26.812 -4.70279
LeftHand  -1.1584 1.82492 36.8975
RightShoulder  1.64598 2.78377 19.6025
RightArm  2.7228 -21.9164 47.4349
RightForeArm  22.285 14.3609 9.92005
RightHand  -1.45452 -0.593147 -34.4204
LeftUpLeg  -0.769452 14.9144 20.482
LeftLeg  -0.477145 -12.9763 1.98406
LeftFoot  1.6685 3.36242 -29.0033
LeftToes  3.99265e-010 -1.33173e-010 6.75004e-011
309
root  -6.8349 38.4596 5.66206 -0.340685 -79.7704 0.352666
RightUpLeg  5.66975 -13.5894 -21.5462
RightLeg  0.471228 -4.79492 -1.39958
RightFoot  3.67318 -3.26733 24.6323
RightToes  5.82063e-011 0 -3.6325e-017
Spine  8.48084 -1.03747 1.06789
Spine1  -3.20996 -1.39088 3.22376
HEad  -1.08529 -3.40171 3.67647
LeftShoulder1  2.40456 -6.05878 -18.5997
LeftArm  12.9241 24.8237 -52.0273
LeftForeArm  16.2387 -23.9282 -4.34337
LeftHand  -1.1294 1.92445 37.0085
RightShoulder  1.64394 2.78627 19.5704
RightArm  2.28929 -21.9988 47.1998
RightForeArm  21.4239 13.9098 10.2476
RightHand  -1.40012 -0.637631 -33.4958
LeftUpLeg  -0.761499 15.068 20.862
LeftLeg  -0.681328 -12.0264 2.12129
LeftFoot  1.84909 3.43866 -29.2489
LeftToes  3.99265e-010 -1.33173e-010 6.75004e-011
310
root  -6.73889 38.4619 5.60839 0.926224 -80.8406 -0.643774
RightUpLeg  4.86666 -13.6971 -21.3358
RightLeg  0.297729 -3.8348 -1.11349
RightFoot  3.70869 -3.31673 24.935
RightToes  5.82063e-011 0 -3.6325e-017
Spine  8.5272 -1.00539 1.14804
Spine1  -3.33626 -1.37489 3.41944
HEad  -1.30228 -3.12374 4.09694
LeftShoulder1  2.37525 -5.96414 -18.5374
LeftArm  11.6758 24.7817 -52.2332
LeftForeArm  14.2889 -21.7683 -4.73991
LeftHand  -1.1741 1.76071 36.7439
RightShoulder  1.64061 2.814 19.5328
RightArm  2.93481 -21.9375 47.1254
RightForeArm  19.395 13.9501 10.3489
RightHand  -1.35159 -0.685741 -32.7111
LeftUpLeg  -0.68203 15.1144 21.0668
LeftLeg  -0.825098 -10.9074 2.25723
LeftFoot  2.05212 3.49576 -29.287
LeftToes  3.99265e-010 -1.33173e-010 6.75004e-011
